<svg width="50" height="38" viewBox="0 0 50 38" fill="none" xmlns="http://www.w3.org/2000/svg">
<path d="M38.6363 37.6621V18.3437L44.6275 12.8626L50 9.82104V34.2529C50 36.1392 48.4717 37.6621 46.5908 37.6621H38.6363Z" fill="#4285F4"/>
<path d="M11.3636 37.6621H3.40915C1.52263 37.6621 -2.66162e-05 36.1336 -2.66162e-05 34.2529V9.82129L6.08513 13.3051L11.3636 18.3437V37.6621Z" fill="#34A853"/>
<path d="M38.6363 18.3437L39.4515 10.7955L38.6363 3.57104L25 13.7984L11.3636 3.57104L10.4517 10.4054L11.3636 18.3437L25 28.571L38.6363 18.3437Z" fill="#EA4335"/>
<path d="M11.3636 3.57103V18.3437L-2.66162e-05 9.82103V5.27553C-2.66162e-05 1.05971 4.81247 -1.34362 8.18161 1.18471L11.3636 3.57103Z" fill="#FBBC04"/>
<path d="M50 9.82112L44.7736 13.741L38.6363 18.3438V3.57112L41.8184 1.18479C45.1934 -1.34372 50 1.05979 50 5.27542V9.82112Z" fill="#C5221F"/>
</svg>
