<svg width="150" height="150" viewBox="0 0 150 150" fill="none" xmlns="http://www.w3.org/2000/svg">
<g opacity="0.5">
<path d="M27.6656 127.505L17.1328 9.375H132.867L122.32 127.486L74.9297 140.625L27.6656 127.505Z" fill="#E44F26"/>
<path d="M75 130.584L113.297 119.967L122.306 19.0359H75V130.584Z" fill="#F1662A"/>
<path d="M75 62.8453H55.8281L54.5063 48.0093H75V33.5203H38.6719L39.0188 37.4109L42.5766 77.3343H75V62.8453ZM75 100.472L74.9344 100.491L58.8 96.1359L57.7688 84.5812H43.2234L45.2531 107.325L74.9344 115.566L75 115.547V100.472Z" fill="#EBEBEB"/>
<path d="M74.9484 62.8453V77.3343H92.789L91.1109 96.1265L74.9484 100.486V115.561L104.653 107.325L104.869 104.878L108.272 66.7359L108.628 62.8453H74.9484ZM74.9484 33.5203V48.0093H109.945L110.236 44.7562L110.897 37.4109L111.244 33.5203H74.9484Z" fill="white"/>
</g>
</svg>
