<svg width="150" height="134" viewBox="0 0 150 134" fill="none" xmlns="http://www.w3.org/2000/svg">
<path d="M123.33 43.4593C121.734 42.9117 120.124 42.4043 118.502 41.9376C118.774 40.8243 119.025 39.7245 119.248 38.644C122.903 20.9013 120.513 6.60732 112.352 1.90107C104.527 -2.61065 91.7291 2.09384 78.8045 13.3421C77.5307 14.4526 76.2852 15.5951 75.0691 16.7686C74.255 15.9883 73.4266 15.2232 72.5842 14.4735C59.0385 2.44658 45.4611 -2.62237 37.3084 2.09736C29.4902 6.62314 27.1752 20.0604 30.4658 36.8757C30.7932 38.541 31.1629 40.1978 31.5744 41.8444C29.6525 42.3905 27.798 42.9718 26.0232 43.5905C10.142 49.1276 0 57.8048 0 66.8054C0 76.1013 10.8879 85.4253 27.4289 91.079C28.77 91.5354 30.1221 91.9583 31.4842 92.3476C31.042 94.121 30.6492 95.9065 30.3064 97.7019C27.1693 114.225 29.6191 127.345 37.4162 131.842C45.4693 136.486 58.9857 131.713 72.1465 120.208C73.2136 119.273 74.2573 118.311 75.2766 117.324C76.5935 118.594 77.9456 119.828 79.3312 121.023C92.0801 131.993 104.671 136.423 112.46 131.914C120.506 127.256 123.121 113.162 119.726 96.0144C119.458 94.671 119.158 93.3343 118.826 92.0054C119.776 91.7241 120.707 91.4347 121.615 91.1335C138.812 85.4364 150 76.2255 150 66.8054C150 57.772 139.53 49.0362 123.33 43.4593ZM119.6 85.0515C118.779 85.3226 117.939 85.5853 117.081 85.8396C115.182 79.8296 112.621 73.4394 109.485 66.8364C112.477 60.3911 114.94 54.0823 116.786 48.1116C118.32 48.5558 119.809 49.0239 121.245 49.5179C135.125 54.2968 143.592 61.3614 143.592 66.8054C143.592 72.6038 134.448 80.1313 119.6 85.0515ZM113.44 97.2589C114.941 104.841 115.155 111.696 114.161 117.056C113.268 121.872 111.471 125.082 109.249 126.368C104.522 129.105 94.4133 125.548 83.5107 116.166C82.2219 115.055 80.9642 113.908 79.7391 112.726C83.966 108.104 88.19 102.73 92.3127 96.762C99.5643 96.1187 106.415 95.0663 112.628 93.6302C112.934 94.8653 113.205 96.0749 113.44 97.2589ZM51.1383 125.895C46.5199 127.526 42.8414 127.573 40.6178 126.291C35.8863 123.562 33.9193 113.028 36.6023 98.8972C36.9213 97.2274 37.2865 95.5668 37.6975 93.9173C43.8416 95.2767 50.6426 96.254 57.9111 96.8435C62.0619 102.683 66.4078 108.051 70.7877 112.752C69.8568 113.652 68.904 114.53 67.9301 115.384C62.11 120.471 56.2781 124.08 51.1383 125.895ZM29.502 85.0157C22.1877 82.5155 16.1473 79.2665 12.007 75.721C8.28633 72.5353 6.4084 69.3718 6.4084 66.8054C6.4084 61.3433 14.5512 54.3765 28.1326 49.6415C29.7809 49.0673 31.5059 48.5253 33.2959 48.0167C35.1732 54.1222 37.6354 60.506 40.6066 66.9612C37.5967 73.512 35.0994 79.9977 33.2039 86.1753C31.9606 85.8191 30.7263 85.4324 29.502 85.0157ZM36.7547 35.6446C33.9357 21.2382 35.8078 10.3708 40.5193 7.64326C45.5373 4.73818 56.6338 8.88017 68.3297 19.2653C69.0924 19.944 69.8427 20.6365 70.5803 21.3425C66.2221 26.0224 61.916 31.3503 57.8022 37.1558C50.7475 37.8097 43.9945 38.8597 37.7859 40.2665C37.4033 38.735 37.0595 37.1935 36.7547 35.6446ZM101.458 51.6226C99.9915 49.0895 98.4707 46.5884 96.8965 44.1208C101.682 44.7261 106.268 45.5294 110.574 46.5114C109.281 50.6552 107.67 54.987 105.773 59.4284C104.387 56.798 102.948 54.1955 101.458 51.6226ZM75.0721 25.9227C78.0275 29.1249 80.9877 32.6997 83.8992 36.5786C77.993 36.2996 72.0769 36.2985 66.1705 36.5751C69.085 32.7319 72.0703 29.1618 75.0721 25.9227ZM48.5168 51.6659C47.0451 54.2181 45.6332 56.8044 44.2822 59.4226C42.4166 54.997 40.8199 50.6452 39.5162 46.4429C43.7959 45.4854 48.3598 44.7026 53.1152 44.1085C51.5236 46.5912 49.9903 49.1114 48.5168 51.6659ZM53.2518 89.9575C48.3387 89.4091 43.7062 88.6667 39.4277 87.7351C40.752 83.4577 42.3838 79.0134 44.2898 74.4929C45.6462 77.113 47.0639 79.7008 48.542 82.2542C50.0619 84.8792 51.6357 87.4503 53.2518 89.9575ZM75.249 108.139C72.2115 104.863 69.1822 101.237 66.2238 97.3386C69.0961 97.4511 72.024 97.5085 75 97.5085C78.0574 97.5085 81.0797 97.4399 84.0545 97.3075C81.1336 101.277 78.1846 104.907 75.249 108.139ZM105.834 74.262C107.839 78.8323 109.529 83.2532 110.871 87.4573C106.522 88.4499 101.826 89.2491 96.8783 89.8427C98.4638 87.3294 99.9991 84.7847 101.483 82.2103C102.992 79.5935 104.443 76.9434 105.834 74.262ZM95.9326 79.0087C93.6603 82.9557 91.2604 86.8278 88.7367 90.619C84.165 90.943 79.5832 91.1039 75 91.1013C70.3318 91.1013 65.7914 90.956 61.4191 90.6724C58.8293 86.8901 56.3836 83.0111 54.0873 79.0438C51.8015 75.0977 49.6671 71.0661 47.6877 66.9577C49.6621 62.8484 51.7906 58.8149 54.0686 54.8657L54.068 54.8663C56.3448 50.916 58.7709 47.0536 61.3412 43.2876C65.802 42.9501 70.3764 42.7743 74.9994 42.7743C79.6436 42.7743 84.2244 42.9519 88.684 43.2917C91.2283 47.0521 93.639 50.9011 95.9115 54.8317C98.1967 58.7724 100.353 62.7862 102.378 66.8669C100.374 70.9893 98.2243 75.0391 95.9326 79.0087ZM109.151 7.45166C114.174 10.3485 116.128 22.0304 112.972 37.3497C112.769 38.3278 112.545 39.322 112.298 40.3321C106.074 38.8954 99.3164 37.8272 92.2412 37.1634C88.1197 31.294 83.8488 25.9579 79.5615 21.3384C80.6852 20.2553 81.8355 19.2003 83.0115 18.1743C94.0857 8.5374 104.436 4.73232 109.151 7.45166ZM75 53.4108C82.3975 53.4108 88.3945 59.4079 88.3945 66.8054C88.3945 74.2028 82.3975 80.1999 75 80.1999C67.6025 80.1999 61.6055 74.2028 61.6055 66.8054C61.6055 59.4079 67.6025 53.4108 75 53.4108Z" fill="#00D8FF"/>
</svg>
