<svg width="150" height="150" viewBox="0 0 150 150" fill="none" xmlns="http://www.w3.org/2000/svg">
<path d="M75.0046 30.0023C55.0042 30.0023 42.5085 39.9984 37.5046 59.9988C45.0023 50.0015 53.755 46.2527 63.7523 48.7523C69.4605 50.175 73.5398 54.314 78.0574 58.9008C85.4097 66.3621 93.9199 75 112.505 75C132.504 75 145.001 65.0027 150.005 44.9976C142.505 55 133.755 58.7508 123.756 56.25C118.049 54.8261 113.974 50.6883 109.451 46.1015C102.103 38.6402 93.5953 30.0023 75.0046 30.0023ZM37.5046 75C17.5054 75 5.00854 84.9972 0.00463867 105.002C7.50386 95 16.2531 91.2492 26.2523 93.75C31.9605 95.1738 36.0398 99.3117 40.5574 103.898C47.9097 111.36 56.4199 119.998 75.0046 119.998C95.0039 119.998 107.501 110.002 112.505 90.0012C105.005 99.9988 96.255 103.748 86.2558 101.248C80.5488 99.825 76.4742 95.6859 71.9507 91.0992C64.6031 83.6379 56.0953 75 37.5046 75Z" fill="#38BDF8"/>
</svg>
