<svg width="150" height="150" viewBox="0 0 150 150" fill="none" xmlns="http://www.w3.org/2000/svg">
<path d="M114.844 0H35.1562C15.74 0 0 15.74 0 35.1562V114.844C0 134.26 15.74 150 35.1562 150H114.844C134.26 150 150 134.26 150 114.844V35.1562C150 15.74 134.26 0 114.844 0Z" fill="#0073AA"/>
<path d="M24.7348 74.9965C24.7348 94.892 36.2971 112.086 53.0631 120.234L29.0865 54.5408C26.213 60.9773 24.7301 67.9477 24.7348 74.9965ZM108.93 72.4599C108.93 66.2484 106.699 61.9465 104.786 58.5978C102.237 54.4576 99.849 50.9513 99.849 46.8111C99.849 42.1904 103.353 37.8896 108.289 37.8896C108.513 37.8896 108.724 37.9172 108.941 37.9295C99.9984 29.7369 88.0846 24.7347 74.9982 24.7347C57.4389 24.7347 41.9894 33.7441 33.0023 47.3906C34.1812 47.4258 35.2928 47.451 36.2367 47.451C41.4943 47.451 49.6324 46.8123 49.6324 46.8123C52.3418 46.6529 52.6617 50.6326 49.9547 50.9531C49.9547 50.9531 47.2318 51.2736 44.2019 51.4324L62.5055 105.877L73.5053 72.8865L65.6742 51.4306C62.9678 51.2719 60.4037 50.9513 60.4037 50.9513C57.6949 50.7926 58.0125 46.6511 60.7213 46.8111C60.7213 46.8111 69.0217 47.4486 73.9605 47.4486C79.2176 47.4486 87.3562 46.8111 87.3562 46.8111C90.068 46.6511 90.3861 50.6308 87.6785 50.9513C87.6785 50.9513 84.9498 51.2719 81.9258 51.4306L100.09 105.462L105.104 88.7092C107.277 81.7564 108.93 76.7631 108.93 72.4599Z" fill="white"/>
<path d="M75.8807 79.3933L60.7998 123.216C65.4106 124.573 70.1923 125.263 74.9988 125.263C80.6837 125.265 86.3276 124.302 91.6898 122.414C91.5504 122.194 91.4308 121.962 91.3324 121.721L75.8807 79.3933ZM119.103 50.8816C119.331 52.5947 119.444 54.3213 119.442 56.0496C119.442 61.1501 118.489 66.8841 115.62 74.0537L100.266 118.444C115.209 109.73 125.261 93.5408 125.261 74.9976C125.261 66.2584 123.029 58.0406 119.103 50.8816Z" fill="white"/>
<path d="M74.9988 16.4062C42.6914 16.4062 16.4062 42.6896 16.4062 74.9965C16.4062 107.307 42.6914 133.59 74.9988 133.59C107.304 133.59 133.594 107.307 133.594 74.9965C133.593 42.6896 107.304 16.4062 74.9988 16.4062ZM74.9988 130.904C44.1727 130.904 19.0928 105.824 19.0928 74.9965C19.0928 44.1709 44.1721 19.0928 74.9988 19.0928C105.823 19.0928 130.901 44.1709 130.901 74.9965C130.901 105.824 105.823 130.904 74.9988 130.904Z" fill="white"/>
</svg>
